solid OpenSCAD_Model
  facet normal 1 -0 0
    outer loop
      vertex 21 3 20.02
      vertex 21 4 20
      vertex 21 4 20.02
    endloop
  endfacet
  facet normal 1 0 0
    outer loop
      vertex 21 4 20
      vertex 21 3 20.02
      vertex 21 3 20
    endloop
  endfacet
  facet normal 1 -0 0
    outer loop
      vertex 21 0 20.02
      vertex 21 1 20
      vertex 21 1 20.02
    endloop
  endfacet
  facet normal 1 0 0
    outer loop
      vertex 21 1 20
      vertex 21 0 20.02
      vertex 21 0 20
    endloop
  endfacet
  facet normal -1 0 0
    outer loop
      vertex 21 1 0
      vertex 21 3 20
      vertex 21 3 0
    endloop
  endfacet
  facet normal -1 -0 0
    outer loop
      vertex 21 3 20
      vertex 21 1 0
      vertex 21 1 20
    endloop
  endfacet
  facet normal 0 0 -1
    outer loop
      vertex 22 0 0
      vertex 21 1 0
      vertex 22 4 0
    endloop
  endfacet
  facet normal 0 0 -1
    outer loop
      vertex 4.19 0 0
      vertex 21 1 0
      vertex 22 0 0
    endloop
  endfacet
  facet normal -0 0 -1
    outer loop
      vertex 21 1 0
      vertex 4.19 0 0
      vertex 4.19 1 0
    endloop
  endfacet
  facet normal 0 0 -1
    outer loop
      vertex 21 3 0
      vertex 22 4 0
      vertex 21 1 0
    endloop
  endfacet
  facet normal 0 0 -1
    outer loop
      vertex 4.19 4 0
      vertex 21 3 0
      vertex 4.19 3 0
    endloop
  endfacet
  facet normal 0 0 -1
    outer loop
      vertex 21 3 0
      vertex 4.19 4 0
      vertex 22 4 0
    endloop
  endfacet
  facet normal 0 -1 0
    outer loop
      vertex 4.19 0 36.83
      vertex 21 0 20
      vertex 21 0 20.02
    endloop
  endfacet
  facet normal 0 -1 0
    outer loop
      vertex 4.19 0 0
      vertex 21 0 20
      vertex 4.19 0 36.83
    endloop
  endfacet
  facet normal 0 -1 0
    outer loop
      vertex 22 0 0
      vertex 21 0 20
      vertex 4.19 0 0
    endloop
  endfacet
  facet normal 0 -1 0
    outer loop
      vertex 21 0 20
      vertex 22 0 0
      vertex 22 0 20
    endloop
  endfacet
  facet normal 1 -0 0
    outer loop
      vertex 22 0 20
      vertex 22 4 0
      vertex 22 4 20
    endloop
  endfacet
  facet normal 1 0 0
    outer loop
      vertex 22 4 0
      vertex 22 0 20
      vertex 22 0 0
    endloop
  endfacet
  facet normal 0 0 1
    outer loop
      vertex 21 3 20
      vertex 22 4 20
      vertex 21 4 20
    endloop
  endfacet
  facet normal 0 0 1
    outer loop
      vertex 22 4 20
      vertex 21 3 20
      vertex 22 0 20
    endloop
  endfacet
  facet normal -0 0 1
    outer loop
      vertex 21 1 20
      vertex 22 0 20
      vertex 21 3 20
    endloop
  endfacet
  facet normal 0 0 1
    outer loop
      vertex 22 0 20
      vertex 21 1 20
      vertex 21 0 20
    endloop
  endfacet
  facet normal 0 1 0
    outer loop
      vertex 22 4 20
      vertex 22 4 0
      vertex 21 4 20
    endloop
  endfacet
  facet normal 0 1 -0
    outer loop
      vertex 21 4 20
      vertex 4.19 4 36.83
      vertex 21 4 20.02
    endloop
  endfacet
  facet normal 0 1 0
    outer loop
      vertex 4.19 4 0
      vertex 21 4 20
      vertex 22 4 0
    endloop
  endfacet
  facet normal 0 1 0
    outer loop
      vertex 21 4 20
      vertex 4.19 4 0
      vertex 4.19 4 36.83
    endloop
  endfacet
  facet normal 0 1 -0
    outer loop
      vertex 21 1 20
      vertex 4.19 1 36.83
      vertex 21 1 20.02
    endloop
  endfacet
  facet normal 0 1 0
    outer loop
      vertex 4.19 1 0
      vertex 21 1 20
      vertex 21 1 0
    endloop
  endfacet
  facet normal 0 1 0
    outer loop
      vertex 21 1 20
      vertex 4.19 1 0
      vertex 4.19 1 36.83
    endloop
  endfacet
  facet normal 0 -1 0
    outer loop
      vertex 4.19 3 36.83
      vertex 21 3 20
      vertex 21 3 20.02
    endloop
  endfacet
  facet normal 0 -1 0
    outer loop
      vertex 4.19 3 0
      vertex 21 3 20
      vertex 4.19 3 36.83
    endloop
  endfacet
  facet normal 0 -1 -0
    outer loop
      vertex 21 3 20
      vertex 4.19 3 0
      vertex 21 3 0
    endloop
  endfacet
  facet normal 0.707107 0 0.707107
    outer loop
      vertex 4.19 1 36.83
      vertex 21 0 20.02
      vertex 21 1 20.02
    endloop
  endfacet
  facet normal 0.707107 0 0.707107
    outer loop
      vertex 21 0 20.02
      vertex 4.19 1 36.83
      vertex 4.19 0 36.83
    endloop
  endfacet
  facet normal 0.707107 0 0.707107
    outer loop
      vertex 4.19 4 36.83
      vertex 21 3 20.02
      vertex 21 4 20.02
    endloop
  endfacet
  facet normal 0.707107 0 0.707107
    outer loop
      vertex 21 3 20.02
      vertex 4.19 4 36.83
      vertex 4.19 3 36.83
    endloop
  endfacet
  facet normal -1 0 0
    outer loop
      vertex 4.19 0 0
      vertex 4.19 1 36.83
      vertex 4.19 1 0
    endloop
  endfacet
  facet normal -1 -0 0
    outer loop
      vertex 4.19 1 36.83
      vertex 4.19 0 0
      vertex 4.19 0 36.83
    endloop
  endfacet
  facet normal -1 0 0
    outer loop
      vertex 4.19 3 0
      vertex 4.19 4 36.83
      vertex 4.19 4 0
    endloop
  endfacet
  facet normal -1 -0 0
    outer loop
      vertex 4.19 4 36.83
      vertex 4.19 3 0
      vertex 4.19 3 36.83
    endloop
  endfacet
endsolid OpenSCAD_Model
