solid OpenSCAD_Model
  facet normal 1 -0 0
    outer loop
      vertex 11 -11 5
      vertex 11 11 -5
      vertex 11 11 5
    endloop
  endfacet
  facet normal 1 0 0
    outer loop
      vertex 11 11 -5
      vertex 11 -11 5
      vertex 11 -11 -5
    endloop
  endfacet
  facet normal 0 0 1
    outer loop
      vertex 11 11 5
      vertex 10.25 10.25 5
      vertex 11 -11 5
    endloop
  endfacet
  facet normal 0 0 1
    outer loop
      vertex 11 11 5
      vertex -10.25 10.25 5
      vertex 10.25 10.25 5
    endloop
  endfacet
  facet normal 0 0 1
    outer loop
      vertex -10.25 10.25 5
      vertex -11 11 5
      vertex -10.25 -10.25 5
    endloop
  endfacet
  facet normal -0 0 1
    outer loop
      vertex -11 11 5
      vertex -10.25 10.25 5
      vertex 11 11 5
    endloop
  endfacet
  facet normal -0 0 1
    outer loop
      vertex 10.25 -10.25 5
      vertex 11 -11 5
      vertex 10.25 10.25 5
    endloop
  endfacet
  facet normal -0 0 1
    outer loop
      vertex -10.25 -10.25 5
      vertex 11 -11 5
      vertex 10.25 -10.25 5
    endloop
  endfacet
  facet normal 0 0 1
    outer loop
      vertex -10.25 -10.25 5
      vertex -11 -11 5
      vertex 11 -11 5
    endloop
  endfacet
  facet normal 0 0 1
    outer loop
      vertex -11 -11 5
      vertex -10.25 -10.25 5
      vertex -11 11 5
    endloop
  endfacet
  facet normal 0 0 -1
    outer loop
      vertex -11 -11 -5
      vertex 11 11 -5
      vertex 11 -11 -5
    endloop
  endfacet
  facet normal -0 0 -1
    outer loop
      vertex 11 11 -5
      vertex -11 -11 -5
      vertex -11 11 -5
    endloop
  endfacet
  facet normal -1 0 0
    outer loop
      vertex -11 -11 -5
      vertex -11 11 5
      vertex -11 11 -5
    endloop
  endfacet
  facet normal -1 -0 0
    outer loop
      vertex -11 11 5
      vertex -11 -11 -5
      vertex -11 -11 5
    endloop
  endfacet
  facet normal 0 1 -0
    outer loop
      vertex 11 11 -5
      vertex -11 11 5
      vertex 11 11 5
    endloop
  endfacet
  facet normal 0 1 0
    outer loop
      vertex -11 11 5
      vertex 11 11 -5
      vertex -11 11 -5
    endloop
  endfacet
  facet normal 0 -1 0
    outer loop
      vertex -11 -11 -5
      vertex 11 -11 5
      vertex -11 -11 5
    endloop
  endfacet
  facet normal 0 -1 -0
    outer loop
      vertex 11 -11 5
      vertex -11 -11 -5
      vertex 11 -11 -5
    endloop
  endfacet
  facet normal -1 0 0
    outer loop
      vertex 10.25 -10.25 -3
      vertex 10.25 10.25 5
      vertex 10.25 10.25 -3
    endloop
  endfacet
  facet normal -1 -0 0
    outer loop
      vertex 10.25 10.25 5
      vertex 10.25 -10.25 -3
      vertex 10.25 -10.25 5
    endloop
  endfacet
  facet normal -0 0 1
    outer loop
      vertex -7 7 -3
      vertex 7 -7 -3
      vertex 7 7 -3
    endloop
  endfacet
  facet normal 0 0 1
    outer loop
      vertex 7 -7 -3
      vertex -7 7 -3
      vertex -7 -7 -3
    endloop
  endfacet
  facet normal 0 0 1
    outer loop
      vertex 10.25 10.25 -3
      vertex 7.75 7.75 -3
      vertex 10.25 -10.25 -3
    endloop
  endfacet
  facet normal 0 0 1
    outer loop
      vertex 10.25 10.25 -3
      vertex -7.75 7.75 -3
      vertex 7.75 7.75 -3
    endloop
  endfacet
  facet normal 0 0 1
    outer loop
      vertex -7.75 7.75 -3
      vertex -10.25 10.25 -3
      vertex -7.75 -7.75 -3
    endloop
  endfacet
  facet normal -0 0 1
    outer loop
      vertex -10.25 10.25 -3
      vertex -7.75 7.75 -3
      vertex 10.25 10.25 -3
    endloop
  endfacet
  facet normal -0 0 1
    outer loop
      vertex 7.75 -7.75 -3
      vertex 10.25 -10.25 -3
      vertex 7.75 7.75 -3
    endloop
  endfacet
  facet normal -0 0 1
    outer loop
      vertex -7.75 -7.75 -3
      vertex 10.25 -10.25 -3
      vertex 7.75 -7.75 -3
    endloop
  endfacet
  facet normal 0 0 1
    outer loop
      vertex -7.75 -7.75 -3
      vertex -10.25 -10.25 -3
      vertex 10.25 -10.25 -3
    endloop
  endfacet
  facet normal 0 0 1
    outer loop
      vertex -10.25 -10.25 -3
      vertex -7.75 -7.75 -3
      vertex -10.25 10.25 -3
    endloop
  endfacet
  facet normal 1 -0 0
    outer loop
      vertex -10.25 -10.25 5
      vertex -10.25 10.25 -3
      vertex -10.25 10.25 5
    endloop
  endfacet
  facet normal 1 0 0
    outer loop
      vertex -10.25 10.25 -3
      vertex -10.25 -10.25 5
      vertex -10.25 -10.25 -3
    endloop
  endfacet
  facet normal 0 -1 0
    outer loop
      vertex -10.25 10.25 -3
      vertex 10.25 10.25 5
      vertex -10.25 10.25 5
    endloop
  endfacet
  facet normal 0 -1 -0
    outer loop
      vertex 10.25 10.25 5
      vertex -10.25 10.25 -3
      vertex 10.25 10.25 -3
    endloop
  endfacet
  facet normal 0 1 -0
    outer loop
      vertex 10.25 -10.25 -3
      vertex -10.25 -10.25 5
      vertex 10.25 -10.25 5
    endloop
  endfacet
  facet normal 0 1 0
    outer loop
      vertex -10.25 -10.25 5
      vertex 10.25 -10.25 -3
      vertex -10.25 -10.25 -3
    endloop
  endfacet
  facet normal 1 -0 0
    outer loop
      vertex 7.75 -7.75 5
      vertex 7.75 7.75 -3
      vertex 7.75 7.75 5
    endloop
  endfacet
  facet normal 1 0 0
    outer loop
      vertex 7.75 7.75 -3
      vertex 7.75 -7.75 5
      vertex 7.75 -7.75 -3
    endloop
  endfacet
  facet normal 0 0 1
    outer loop
      vertex 7.75 7.75 5
      vertex 7 7 5
      vertex 7.75 -7.75 5
    endloop
  endfacet
  facet normal 0 0 1
    outer loop
      vertex 7.75 7.75 5
      vertex -7 7 5
      vertex 7 7 5
    endloop
  endfacet
  facet normal 0 0 1
    outer loop
      vertex -7 7 5
      vertex -7.75 7.75 5
      vertex -7 -7 5
    endloop
  endfacet
  facet normal -0 0 1
    outer loop
      vertex -7.75 7.75 5
      vertex -7 7 5
      vertex 7.75 7.75 5
    endloop
  endfacet
  facet normal -0 0 1
    outer loop
      vertex 7 -7 5
      vertex 7.75 -7.75 5
      vertex 7 7 5
    endloop
  endfacet
  facet normal -0 0 1
    outer loop
      vertex -7 -7 5
      vertex 7.75 -7.75 5
      vertex 7 -7 5
    endloop
  endfacet
  facet normal 0 0 1
    outer loop
      vertex -7 -7 5
      vertex -7.75 -7.75 5
      vertex 7.75 -7.75 5
    endloop
  endfacet
  facet normal 0 0 1
    outer loop
      vertex -7.75 -7.75 5
      vertex -7 -7 5
      vertex -7.75 7.75 5
    endloop
  endfacet
  facet normal -1 0 0
    outer loop
      vertex -7.75 -7.75 -3
      vertex -7.75 7.75 5
      vertex -7.75 7.75 -3
    endloop
  endfacet
  facet normal -1 -0 0
    outer loop
      vertex -7.75 7.75 5
      vertex -7.75 -7.75 -3
      vertex -7.75 -7.75 5
    endloop
  endfacet
  facet normal 0 1 -0
    outer loop
      vertex 7.75 7.75 -3
      vertex -7.75 7.75 5
      vertex 7.75 7.75 5
    endloop
  endfacet
  facet normal 0 1 0
    outer loop
      vertex -7.75 7.75 5
      vertex 7.75 7.75 -3
      vertex -7.75 7.75 -3
    endloop
  endfacet
  facet normal 0 -1 0
    outer loop
      vertex -7.75 -7.75 -3
      vertex 7.75 -7.75 5
      vertex -7.75 -7.75 5
    endloop
  endfacet
  facet normal 0 -1 -0
    outer loop
      vertex 7.75 -7.75 5
      vertex -7.75 -7.75 -3
      vertex 7.75 -7.75 -3
    endloop
  endfacet
  facet normal -1 0 0
    outer loop
      vertex 7 -7 -3
      vertex 7 7 5
      vertex 7 7 -3
    endloop
  endfacet
  facet normal -1 -0 0
    outer loop
      vertex 7 7 5
      vertex 7 -7 -3
      vertex 7 -7 5
    endloop
  endfacet
  facet normal 1 -0 0
    outer loop
      vertex -7 -7 5
      vertex -7 7 -3
      vertex -7 7 5
    endloop
  endfacet
  facet normal 1 0 0
    outer loop
      vertex -7 7 -3
      vertex -7 -7 5
      vertex -7 -7 -3
    endloop
  endfacet
  facet normal 0 -1 0
    outer loop
      vertex -7 7 -3
      vertex 7 7 5
      vertex -7 7 5
    endloop
  endfacet
  facet normal 0 -1 -0
    outer loop
      vertex 7 7 5
      vertex -7 7 -3
      vertex 7 7 -3
    endloop
  endfacet
  facet normal 0 1 -0
    outer loop
      vertex 7 -7 -3
      vertex -7 -7 5
      vertex 7 -7 5
    endloop
  endfacet
  facet normal 0 1 0
    outer loop
      vertex -7 -7 5
      vertex 7 -7 -3
      vertex -7 -7 -3
    endloop
  endfacet
endsolid OpenSCAD_Model
