solid OpenSCAD_Model
  facet normal 0 -1 0
    outer loop
      vertex -3 -5.19615 0
      vertex 3 -5.19615 5
      vertex -3 -5.19615 5
    endloop
  endfacet
  facet normal 0 -1 -0
    outer loop
      vertex 3 -5.19615 5
      vertex -3 -5.19615 0
      vertex 3 -5.19615 0
    endloop
  endfacet
  facet normal 0.866025 -0.5 0
    outer loop
      vertex 3 -5.19615 5
      vertex 6 0 0
      vertex 6 0 5
    endloop
  endfacet
  facet normal 0.866025 -0.5 0
    outer loop
      vertex 6 0 0
      vertex 3 -5.19615 5
      vertex 3 -5.19615 0
    endloop
  endfacet
  facet normal 0 1 -0
    outer loop
      vertex 3 5.19615 0
      vertex -3 5.19615 5
      vertex 3 5.19615 5
    endloop
  endfacet
  facet normal 0 1 0
    outer loop
      vertex -3 5.19615 5
      vertex 3 5.19615 0
      vertex -3 5.19615 0
    endloop
  endfacet
  facet normal 0.866025 0.5 0
    outer loop
      vertex 6 0 5
      vertex 3 5.19615 0
      vertex 3 5.19615 5
    endloop
  endfacet
  facet normal 0.866025 0.5 0
    outer loop
      vertex 3 5.19615 0
      vertex 6 0 5
      vertex 6 0 0
    endloop
  endfacet
  facet normal -0.866025 0.5 0
    outer loop
      vertex -6 0 0
      vertex -3 5.19615 5
      vertex -3 5.19615 0
    endloop
  endfacet
  facet normal -0.866025 0.5 0
    outer loop
      vertex -3 5.19615 5
      vertex -6 0 0
      vertex -6 0 5
    endloop
  endfacet
  facet normal -0.866025 -0.5 0
    outer loop
      vertex -3 -5.19615 0
      vertex -6 0 5
      vertex -6 0 0
    endloop
  endfacet
  facet normal -0.866025 -0.5 0
    outer loop
      vertex -6 0 5
      vertex -3 -5.19615 0
      vertex -3 -5.19615 5
    endloop
  endfacet
  facet normal 0 0 1
    outer loop
      vertex 6 0 5
      vertex 3.98074 0.392068 5
      vertex 4 0 5
    endloop
  endfacet
  facet normal 0 0 1
    outer loop
      vertex 6 0 5
      vertex 3.92314 0.780361 5
      vertex 3.98074 0.392068 5
    endloop
  endfacet
  facet normal 0 0 1
    outer loop
      vertex 6 0 5
      vertex 3.82776 1.16114 5
      vertex 3.92314 0.780361 5
    endloop
  endfacet
  facet normal 0 0 1
    outer loop
      vertex 6 0 5
      vertex 3.69552 1.53073 5
      vertex 3.82776 1.16114 5
    endloop
  endfacet
  facet normal 0 0 1
    outer loop
      vertex 6 0 5
      vertex 3.52768 1.88559 5
      vertex 3.69552 1.53073 5
    endloop
  endfacet
  facet normal 0 0 1
    outer loop
      vertex 3 5.19615 5
      vertex 3.52768 1.88559 5
      vertex 6 0 5
    endloop
  endfacet
  facet normal 0 0 1
    outer loop
      vertex 3.52768 1.88559 5
      vertex 3 5.19615 5
      vertex 3.32588 2.22228 5
    endloop
  endfacet
  facet normal 0 0 1
    outer loop
      vertex 3.32588 2.22228 5
      vertex 3 5.19615 5
      vertex 3.09204 2.53757 5
    endloop
  endfacet
  facet normal 0 0 1
    outer loop
      vertex 3 5.19615 5
      vertex 2.82843 2.82843 5
      vertex 3.09204 2.53757 5
    endloop
  endfacet
  facet normal 0 0 1
    outer loop
      vertex 3 5.19615 5
      vertex 2.53757 3.09204 5
      vertex 2.82843 2.82843 5
    endloop
  endfacet
  facet normal 0 0 1
    outer loop
      vertex 3 5.19615 5
      vertex 2.22228 3.32588 5
      vertex 2.53757 3.09204 5
    endloop
  endfacet
  facet normal 0 0 1
    outer loop
      vertex 3 5.19615 5
      vertex 1.88559 3.52768 5
      vertex 2.22228 3.32588 5
    endloop
  endfacet
  facet normal 0 0 1
    outer loop
      vertex 3 5.19615 5
      vertex 1.53073 3.69552 5
      vertex 1.88559 3.52768 5
    endloop
  endfacet
  facet normal 0 0 1
    outer loop
      vertex 3 5.19615 5
      vertex 1.16114 3.82776 5
      vertex 1.53073 3.69552 5
    endloop
  endfacet
  facet normal 0 0 1
    outer loop
      vertex 3 5.19615 5
      vertex 0.780361 3.92314 5
      vertex 1.16114 3.82776 5
    endloop
  endfacet
  facet normal 0 0 1
    outer loop
      vertex 3 5.19615 5
      vertex 0.392068 3.98074 5
      vertex 0.780361 3.92314 5
    endloop
  endfacet
  facet normal 0 0 1
    outer loop
      vertex 3 5.19615 5
      vertex 0 4 5
      vertex 0.392068 3.98074 5
    endloop
  endfacet
  facet normal -0 0 1
    outer loop
      vertex -3 5.19615 5
      vertex 0 4 5
      vertex 3 5.19615 5
    endloop
  endfacet
  facet normal 0 0 1
    outer loop
      vertex 0 4 5
      vertex -3 5.19615 5
      vertex -0.392068 3.98074 5
    endloop
  endfacet
  facet normal 0 0 1
    outer loop
      vertex -0.392068 3.98074 5
      vertex -3 5.19615 5
      vertex -0.780361 3.92314 5
    endloop
  endfacet
  facet normal 0 0 1
    outer loop
      vertex -0.780361 3.92314 5
      vertex -3 5.19615 5
      vertex -1.16114 3.82776 5
    endloop
  endfacet
  facet normal 0 0 1
    outer loop
      vertex -3 5.19615 5
      vertex -1.53073 3.69552 5
      vertex -1.16114 3.82776 5
    endloop
  endfacet
  facet normal 0 0 1
    outer loop
      vertex -3 5.19615 5
      vertex -1.88559 3.52768 5
      vertex -1.53073 3.69552 5
    endloop
  endfacet
  facet normal 0 0 1
    outer loop
      vertex -3 5.19615 5
      vertex -2.22228 3.32588 5
      vertex -1.88559 3.52768 5
    endloop
  endfacet
  facet normal 0 0 1
    outer loop
      vertex -3 5.19615 5
      vertex -2.53757 3.09204 5
      vertex -2.22228 3.32588 5
    endloop
  endfacet
  facet normal 0 0 1
    outer loop
      vertex -3 5.19615 5
      vertex -2.82843 2.82843 5
      vertex -2.53757 3.09204 5
    endloop
  endfacet
  facet normal 0 0 1
    outer loop
      vertex -3 5.19615 5
      vertex -3.09204 2.53757 5
      vertex -2.82843 2.82843 5
    endloop
  endfacet
  facet normal 0 0 1
    outer loop
      vertex -3 5.19615 5
      vertex -3.32588 2.22228 5
      vertex -3.09204 2.53757 5
    endloop
  endfacet
  facet normal 0 0 1
    outer loop
      vertex -3 5.19615 5
      vertex -3.52768 1.88559 5
      vertex -3.32588 2.22228 5
    endloop
  endfacet
  facet normal 0 0 1
    outer loop
      vertex -6 0 5
      vertex -3.52768 1.88559 5
      vertex -3 5.19615 5
    endloop
  endfacet
  facet normal 0 0 1
    outer loop
      vertex -3.52768 1.88559 5
      vertex -6 0 5
      vertex -3.69552 1.53073 5
    endloop
  endfacet
  facet normal 0 0 1
    outer loop
      vertex -3.69552 1.53073 5
      vertex -6 0 5
      vertex -3.82776 1.16114 5
    endloop
  endfacet
  facet normal 0 0 1
    outer loop
      vertex -3.98074 0.392068 5
      vertex -6 0 5
      vertex -4 0 5
    endloop
  endfacet
  facet normal 0 0 1
    outer loop
      vertex -3.92314 0.780361 5
      vertex -6 0 5
      vertex -3.98074 0.392068 5
    endloop
  endfacet
  facet normal 0 0 1
    outer loop
      vertex -3.82776 1.16114 5
      vertex -6 0 5
      vertex -3.92314 0.780361 5
    endloop
  endfacet
  facet normal 0 0 1
    outer loop
      vertex 3.98074 -0.392068 5
      vertex 6 0 5
      vertex 4 0 5
    endloop
  endfacet
  facet normal 0 0 1
    outer loop
      vertex 3.92314 -0.780361 5
      vertex 6 0 5
      vertex 3.98074 -0.392068 5
    endloop
  endfacet
  facet normal 0 0 1
    outer loop
      vertex 3.82776 -1.16114 5
      vertex 6 0 5
      vertex 3.92314 -0.780361 5
    endloop
  endfacet
  facet normal 0 0 1
    outer loop
      vertex 3.69552 -1.53073 5
      vertex 6 0 5
      vertex 3.82776 -1.16114 5
    endloop
  endfacet
  facet normal 0 0 1
    outer loop
      vertex 3.52768 -1.88559 5
      vertex 6 0 5
      vertex 3.69552 -1.53073 5
    endloop
  endfacet
  facet normal 0 0 1
    outer loop
      vertex 3 -5.19615 5
      vertex 3.52768 -1.88559 5
      vertex 3.32588 -2.22228 5
    endloop
  endfacet
  facet normal 0 0 1
    outer loop
      vertex 3 -5.19615 5
      vertex 3.32588 -2.22228 5
      vertex 3.09204 -2.53757 5
    endloop
  endfacet
  facet normal -0 0 1
    outer loop
      vertex 3.52768 -1.88559 5
      vertex 3 -5.19615 5
      vertex 6 0 5
    endloop
  endfacet
  facet normal -0 0 1
    outer loop
      vertex 2.82843 -2.82843 5
      vertex 3 -5.19615 5
      vertex 3.09204 -2.53757 5
    endloop
  endfacet
  facet normal -0 0 1
    outer loop
      vertex 2.53757 -3.09204 5
      vertex 3 -5.19615 5
      vertex 2.82843 -2.82843 5
    endloop
  endfacet
  facet normal -0 0 1
    outer loop
      vertex 2.22228 -3.32588 5
      vertex 3 -5.19615 5
      vertex 2.53757 -3.09204 5
    endloop
  endfacet
  facet normal -0 0 1
    outer loop
      vertex 1.88559 -3.52768 5
      vertex 3 -5.19615 5
      vertex 2.22228 -3.32588 5
    endloop
  endfacet
  facet normal -0 0 1
    outer loop
      vertex 1.53073 -3.69552 5
      vertex 3 -5.19615 5
      vertex 1.88559 -3.52768 5
    endloop
  endfacet
  facet normal -0 0 1
    outer loop
      vertex 1.16114 -3.82776 5
      vertex 3 -5.19615 5
      vertex 1.53073 -3.69552 5
    endloop
  endfacet
  facet normal -0 0 1
    outer loop
      vertex 0.780361 -3.92314 5
      vertex 3 -5.19615 5
      vertex 1.16114 -3.82776 5
    endloop
  endfacet
  facet normal -0 0 1
    outer loop
      vertex 0.392068 -3.98074 5
      vertex 3 -5.19615 5
      vertex 0.780361 -3.92314 5
    endloop
  endfacet
  facet normal -0 0 1
    outer loop
      vertex 0 -4 5
      vertex 3 -5.19615 5
      vertex 0.392068 -3.98074 5
    endloop
  endfacet
  facet normal 0 0 1
    outer loop
      vertex -3 -5.19615 5
      vertex 0 -4 5
      vertex -0.392068 -3.98074 5
    endloop
  endfacet
  facet normal 0 0 1
    outer loop
      vertex -3 -5.19615 5
      vertex -0.392068 -3.98074 5
      vertex -0.780361 -3.92314 5
    endloop
  endfacet
  facet normal 0 0 1
    outer loop
      vertex -3 -5.19615 5
      vertex -0.780361 -3.92314 5
      vertex -1.16114 -3.82776 5
    endloop
  endfacet
  facet normal 0 0 1
    outer loop
      vertex 0 -4 5
      vertex -3 -5.19615 5
      vertex 3 -5.19615 5
    endloop
  endfacet
  facet normal 0 0 1
    outer loop
      vertex -1.53073 -3.69552 5
      vertex -3 -5.19615 5
      vertex -1.16114 -3.82776 5
    endloop
  endfacet
  facet normal 0 0 1
    outer loop
      vertex -1.88559 -3.52768 5
      vertex -3 -5.19615 5
      vertex -1.53073 -3.69552 5
    endloop
  endfacet
  facet normal 0 0 1
    outer loop
      vertex -2.22228 -3.32588 5
      vertex -3 -5.19615 5
      vertex -1.88559 -3.52768 5
    endloop
  endfacet
  facet normal 0 0 1
    outer loop
      vertex -2.53757 -3.09204 5
      vertex -3 -5.19615 5
      vertex -2.22228 -3.32588 5
    endloop
  endfacet
  facet normal 0 0 1
    outer loop
      vertex -2.82843 -2.82843 5
      vertex -3 -5.19615 5
      vertex -2.53757 -3.09204 5
    endloop
  endfacet
  facet normal 0 0 1
    outer loop
      vertex -3.09204 -2.53757 5
      vertex -3 -5.19615 5
      vertex -2.82843 -2.82843 5
    endloop
  endfacet
  facet normal 0 0 1
    outer loop
      vertex -3.32588 -2.22228 5
      vertex -3 -5.19615 5
      vertex -3.09204 -2.53757 5
    endloop
  endfacet
  facet normal 0 0 1
    outer loop
      vertex -3.52768 -1.88559 5
      vertex -3 -5.19615 5
      vertex -3.32588 -2.22228 5
    endloop
  endfacet
  facet normal 0 0 1
    outer loop
      vertex -6 0 5
      vertex -3.52768 -1.88559 5
      vertex -3.69552 -1.53073 5
    endloop
  endfacet
  facet normal 0 0 1
    outer loop
      vertex -6 0 5
      vertex -3.69552 -1.53073 5
      vertex -3.82776 -1.16114 5
    endloop
  endfacet
  facet normal 0 0 1
    outer loop
      vertex -6 0 5
      vertex -3.82776 -1.16114 5
      vertex -3.92314 -0.780361 5
    endloop
  endfacet
  facet normal 0 0 1
    outer loop
      vertex -3.52768 -1.88559 5
      vertex -6 0 5
      vertex -3 -5.19615 5
    endloop
  endfacet
  facet normal 0 0 1
    outer loop
      vertex -3.98074 -0.392068 5
      vertex -6 0 5
      vertex -3.92314 -0.780361 5
    endloop
  endfacet
  facet normal -0 0 1
    outer loop
      vertex -6 0 5
      vertex -3.98074 -0.392068 5
      vertex -4 0 5
    endloop
  endfacet
  facet normal 0 0 -1
    outer loop
      vertex 3 -5.19615 0
      vertex 3 5.19615 0
      vertex 6 0 0
    endloop
  endfacet
  facet normal 0 0 -1
    outer loop
      vertex 3 -5.19615 0
      vertex -3 5.19615 0
      vertex 3 5.19615 0
    endloop
  endfacet
  facet normal 0 0 -1
    outer loop
      vertex -3 -5.19615 0
      vertex -3 5.19615 0
      vertex 3 -5.19615 0
    endloop
  endfacet
  facet normal 0 0 -1
    outer loop
      vertex -3 5.19615 0
      vertex -3 -5.19615 0
      vertex -6 0 0
    endloop
  endfacet
  facet normal 0.803207 -0.5957 0
    outer loop
      vertex 3.09204 -2.53757 10
      vertex 3.32588 -2.22228 5
      vertex 3.32588 -2.22228 10
    endloop
  endfacet
  facet normal 0.803207 -0.5957 0
    outer loop
      vertex 3.32588 -2.22228 5
      vertex 3.09204 -2.53757 10
      vertex 3.09204 -2.53757 5
    endloop
  endfacet
  facet normal 0.941544 -0.33689 0
    outer loop
      vertex 3.69552 -1.53073 10
      vertex 3.82776 -1.16114 5
      vertex 3.82776 -1.16114 10
    endloop
  endfacet
  facet normal 0.941544 -0.33689 0
    outer loop
      vertex 3.82776 -1.16114 5
      vertex 3.69552 -1.53073 10
      vertex 3.69552 -1.53073 5
    endloop
  endfacet
  facet normal -0.989176 0.146731 0
    outer loop
      vertex -3.98074 0.392068 5
      vertex -3.92314 0.780361 10
      vertex -3.92314 0.780361 5
    endloop
  endfacet
  facet normal -0.989176 0.146731 0
    outer loop
      vertex -3.92314 0.780361 10
      vertex -3.98074 0.392068 5
      vertex -3.98074 0.392068 10
    endloop
  endfacet
  facet normal 0.33689 0.941544 -0
    outer loop
      vertex 1.53073 3.69552 5
      vertex 1.16114 3.82776 10
      vertex 1.53073 3.69552 10
    endloop
  endfacet
  facet normal 0.33689 0.941544 0
    outer loop
      vertex 1.16114 3.82776 10
      vertex 1.53073 3.69552 5
      vertex 1.16114 3.82776 5
    endloop
  endfacet
  facet normal 0.989176 0.146731 0
    outer loop
      vertex 3.98074 0.392068 10
      vertex 3.92314 0.780361 5
      vertex 3.92314 0.780361 10
    endloop
  endfacet
  facet normal 0.989176 0.146731 0
    outer loop
      vertex 3.92314 0.780361 5
      vertex 3.98074 0.392068 10
      vertex 3.98074 0.392068 5
    endloop
  endfacet
  facet normal -0.903989 -0.427555 0
    outer loop
      vertex -3.52768 -1.88559 5
      vertex -3.69552 -1.53073 10
      vertex -3.69552 -1.53073 5
    endloop
  endfacet
  facet normal -0.903989 -0.427555 0
    outer loop
      vertex -3.69552 -1.53073 10
      vertex -3.52768 -1.88559 5
      vertex -3.52768 -1.88559 10
    endloop
  endfacet
  facet normal 0.989176 -0.146731 0
    outer loop
      vertex 3.92314 -0.780361 10
      vertex 3.98074 -0.392068 5
      vertex 3.98074 -0.392068 10
    endloop
  endfacet
  facet normal 0.989176 -0.146731 0
    outer loop
      vertex 3.98074 -0.392068 5
      vertex 3.92314 -0.780361 10
      vertex 3.92314 -0.780361 5
    endloop
  endfacet
  facet normal -0.514102 0.857729 0
    outer loop
      vertex -1.88559 3.52768 5
      vertex -2.22228 3.32588 10
      vertex -1.88559 3.52768 10
    endloop
  endfacet
  facet normal -0.514102 0.857729 0
    outer loop
      vertex -2.22228 3.32588 10
      vertex -1.88559 3.52768 5
      vertex -2.22228 3.32588 5
    endloop
  endfacet
  facet normal 0.146731 0.989176 -0
    outer loop
      vertex 0.780361 3.92314 5
      vertex 0.392068 3.98074 10
      vertex 0.780361 3.92314 10
    endloop
  endfacet
  facet normal 0.146731 0.989176 0
    outer loop
      vertex 0.392068 3.98074 10
      vertex 0.780361 3.92314 5
      vertex 0.392068 3.98074 5
    endloop
  endfacet
  facet normal 0.803207 0.5957 0
    outer loop
      vertex 3.32588 2.22228 10
      vertex 3.09204 2.53757 5
      vertex 3.09204 2.53757 10
    endloop
  endfacet
  facet normal 0.803207 0.5957 0
    outer loop
      vertex 3.09204 2.53757 5
      vertex 3.32588 2.22228 10
      vertex 3.32588 2.22228 5
    endloop
  endfacet
  facet normal -0.33689 0.941544 0
    outer loop
      vertex -1.16114 3.82776 5
      vertex -1.53073 3.69552 10
      vertex -1.16114 3.82776 10
    endloop
  endfacet
  facet normal -0.33689 0.941544 0
    outer loop
      vertex -1.53073 3.69552 10
      vertex -1.16114 3.82776 5
      vertex -1.53073 3.69552 5
    endloop
  endfacet
  facet normal -0.5957 0.803207 0
    outer loop
      vertex -2.22228 3.32588 5
      vertex -2.53757 3.09204 10
      vertex -2.22228 3.32588 10
    endloop
  endfacet
  facet normal -0.5957 0.803207 0
    outer loop
      vertex -2.53757 3.09204 10
      vertex -2.22228 3.32588 5
      vertex -2.53757 3.09204 5
    endloop
  endfacet
  facet normal 0.5957 -0.803207 0
    outer loop
      vertex 2.22228 -3.32588 5
      vertex 2.53757 -3.09204 10
      vertex 2.22228 -3.32588 10
    endloop
  endfacet
  facet normal 0.5957 -0.803207 0
    outer loop
      vertex 2.53757 -3.09204 10
      vertex 2.22228 -3.32588 5
      vertex 2.53757 -3.09204 5
    endloop
  endfacet
  facet normal 0.67156 -0.740951 0
    outer loop
      vertex 2.53757 -3.09204 5
      vertex 2.82843 -2.82843 10
      vertex 2.53757 -3.09204 10
    endloop
  endfacet
  facet normal 0.67156 -0.740951 0
    outer loop
      vertex 2.82843 -2.82843 10
      vertex 2.53757 -3.09204 5
      vertex 2.82843 -2.82843 5
    endloop
  endfacet
  facet normal 0.146731 -0.989176 0
    outer loop
      vertex 0.392068 -3.98074 5
      vertex 0.780361 -3.92314 10
      vertex 0.392068 -3.98074 10
    endloop
  endfacet
  facet normal 0.146731 -0.989176 0
    outer loop
      vertex 0.780361 -3.92314 10
      vertex 0.392068 -3.98074 5
      vertex 0.780361 -3.92314 5
    endloop
  endfacet
  facet normal -0.989176 -0.146731 0
    outer loop
      vertex -3.92314 -0.780361 5
      vertex -3.98074 -0.392068 10
      vertex -3.98074 -0.392068 5
    endloop
  endfacet
  facet normal -0.989176 -0.146731 0
    outer loop
      vertex -3.98074 -0.392068 10
      vertex -3.92314 -0.780361 5
      vertex -3.92314 -0.780361 10
    endloop
  endfacet
  facet normal -0.803207 -0.5957 0
    outer loop
      vertex -3.09204 -2.53757 5
      vertex -3.32588 -2.22228 10
      vertex -3.32588 -2.22228 5
    endloop
  endfacet
  facet normal -0.803207 -0.5957 0
    outer loop
      vertex -3.32588 -2.22228 10
      vertex -3.09204 -2.53757 5
      vertex -3.09204 -2.53757 10
    endloop
  endfacet
  facet normal 0.427555 0.903989 -0
    outer loop
      vertex 1.88559 3.52768 5
      vertex 1.53073 3.69552 10
      vertex 1.88559 3.52768 10
    endloop
  endfacet
  facet normal 0.427555 0.903989 0
    outer loop
      vertex 1.53073 3.69552 10
      vertex 1.88559 3.52768 5
      vertex 1.53073 3.69552 5
    endloop
  endfacet
  facet normal 0.998795 0.0490684 0
    outer loop
      vertex 4 0 10
      vertex 3.98074 0.392068 5
      vertex 3.98074 0.392068 10
    endloop
  endfacet
  facet normal 0.998795 0.0490684 0
    outer loop
      vertex 3.98074 0.392068 5
      vertex 4 0 10
      vertex 4 0 5
    endloop
  endfacet
  facet normal -0.857729 0.514102 0
    outer loop
      vertex -3.52768 1.88559 5
      vertex -3.32588 2.22228 10
      vertex -3.32588 2.22228 5
    endloop
  endfacet
  facet normal -0.857729 0.514102 0
    outer loop
      vertex -3.32588 2.22228 10
      vertex -3.52768 1.88559 5
      vertex -3.52768 1.88559 10
    endloop
  endfacet
  facet normal 0.5957 0.803207 -0
    outer loop
      vertex 2.53757 3.09204 5
      vertex 2.22228 3.32588 10
      vertex 2.53757 3.09204 10
    endloop
  endfacet
  facet normal 0.5957 0.803207 0
    outer loop
      vertex 2.22228 3.32588 10
      vertex 2.53757 3.09204 5
      vertex 2.22228 3.32588 5
    endloop
  endfacet
  facet normal -0.24298 -0.970031 0
    outer loop
      vertex -1.16114 -3.82776 5
      vertex -0.780361 -3.92314 10
      vertex -1.16114 -3.82776 10
    endloop
  endfacet
  facet normal -0.24298 -0.970031 -0
    outer loop
      vertex -0.780361 -3.92314 10
      vertex -1.16114 -3.82776 5
      vertex -0.780361 -3.92314 5
    endloop
  endfacet
  facet normal -0.941544 0.33689 0
    outer loop
      vertex -3.82776 1.16114 5
      vertex -3.69552 1.53073 10
      vertex -3.69552 1.53073 5
    endloop
  endfacet
  facet normal -0.941544 0.33689 0
    outer loop
      vertex -3.69552 1.53073 10
      vertex -3.82776 1.16114 5
      vertex -3.82776 1.16114 10
    endloop
  endfacet
  facet normal -0.146731 0.989176 0
    outer loop
      vertex -0.392068 3.98074 5
      vertex -0.780361 3.92314 10
      vertex -0.392068 3.98074 10
    endloop
  endfacet
  facet normal -0.146731 0.989176 0
    outer loop
      vertex -0.780361 3.92314 10
      vertex -0.392068 3.98074 5
      vertex -0.780361 3.92314 5
    endloop
  endfacet
  facet normal 0.903989 0.427555 0
    outer loop
      vertex 3.69552 1.53073 10
      vertex 3.52768 1.88559 5
      vertex 3.52768 1.88559 10
    endloop
  endfacet
  facet normal 0.903989 0.427555 0
    outer loop
      vertex 3.52768 1.88559 5
      vertex 3.69552 1.53073 10
      vertex 3.69552 1.53073 5
    endloop
  endfacet
  facet normal 0.998795 -0.0490684 0
    outer loop
      vertex 3.98074 -0.392068 10
      vertex 4 0 5
      vertex 4 0 10
    endloop
  endfacet
  facet normal 0.998795 -0.0490684 0
    outer loop
      vertex 4 0 5
      vertex 3.98074 -0.392068 10
      vertex 3.98074 -0.392068 5
    endloop
  endfacet
  facet normal 0.67156 0.740951 -0
    outer loop
      vertex 2.82843 2.82843 5
      vertex 2.53757 3.09204 10
      vertex 2.82843 2.82843 10
    endloop
  endfacet
  facet normal 0.67156 0.740951 0
    outer loop
      vertex 2.53757 3.09204 10
      vertex 2.82843 2.82843 5
      vertex 2.53757 3.09204 5
    endloop
  endfacet
  facet normal 0.970031 0.24298 0
    outer loop
      vertex 3.92314 0.780361 10
      vertex 3.82776 1.16114 5
      vertex 3.82776 1.16114 10
    endloop
  endfacet
  facet normal 0.970031 0.24298 0
    outer loop
      vertex 3.82776 1.16114 5
      vertex 3.92314 0.780361 10
      vertex 3.92314 0.780361 5
    endloop
  endfacet
  facet normal 0.24298 0.970031 -0
    outer loop
      vertex 1.16114 3.82776 5
      vertex 0.780361 3.92314 10
      vertex 1.16114 3.82776 10
    endloop
  endfacet
  facet normal 0.24298 0.970031 0
    outer loop
      vertex 0.780361 3.92314 10
      vertex 1.16114 3.82776 5
      vertex 0.780361 3.92314 5
    endloop
  endfacet
  facet normal 0.33689 -0.941544 0
    outer loop
      vertex 1.16114 -3.82776 5
      vertex 1.53073 -3.69552 10
      vertex 1.16114 -3.82776 10
    endloop
  endfacet
  facet normal 0.33689 -0.941544 0
    outer loop
      vertex 1.53073 -3.69552 10
      vertex 1.16114 -3.82776 5
      vertex 1.53073 -3.69552 5
    endloop
  endfacet
  facet normal 0.857729 -0.514102 0
    outer loop
      vertex 3.32588 -2.22228 10
      vertex 3.52768 -1.88559 5
      vertex 3.52768 -1.88559 10
    endloop
  endfacet
  facet normal 0.857729 -0.514102 0
    outer loop
      vertex 3.52768 -1.88559 5
      vertex 3.32588 -2.22228 10
      vertex 3.32588 -2.22228 5
    endloop
  endfacet
  facet normal -0.33689 -0.941544 0
    outer loop
      vertex -1.53073 -3.69552 5
      vertex -1.16114 -3.82776 10
      vertex -1.53073 -3.69552 10
    endloop
  endfacet
  facet normal -0.33689 -0.941544 -0
    outer loop
      vertex -1.16114 -3.82776 10
      vertex -1.53073 -3.69552 5
      vertex -1.16114 -3.82776 5
    endloop
  endfacet
  facet normal 0.24298 -0.970031 0
    outer loop
      vertex 0.780361 -3.92314 5
      vertex 1.16114 -3.82776 10
      vertex 0.780361 -3.92314 10
    endloop
  endfacet
  facet normal 0.24298 -0.970031 0
    outer loop
      vertex 1.16114 -3.82776 10
      vertex 0.780361 -3.92314 5
      vertex 1.16114 -3.82776 5
    endloop
  endfacet
  facet normal 0.514102 0.857729 -0
    outer loop
      vertex 2.22228 3.32588 5
      vertex 1.88559 3.52768 10
      vertex 2.22228 3.32588 10
    endloop
  endfacet
  facet normal 0.514102 0.857729 0
    outer loop
      vertex 1.88559 3.52768 10
      vertex 2.22228 3.32588 5
      vertex 1.88559 3.52768 5
    endloop
  endfacet
  facet normal 0.903989 -0.427555 0
    outer loop
      vertex 3.52768 -1.88559 10
      vertex 3.69552 -1.53073 5
      vertex 3.69552 -1.53073 10
    endloop
  endfacet
  facet normal 0.903989 -0.427555 0
    outer loop
      vertex 3.69552 -1.53073 5
      vertex 3.52768 -1.88559 10
      vertex 3.52768 -1.88559 5
    endloop
  endfacet
  facet normal 0.941544 0.33689 0
    outer loop
      vertex 3.82776 1.16114 10
      vertex 3.69552 1.53073 5
      vertex 3.69552 1.53073 10
    endloop
  endfacet
  facet normal 0.941544 0.33689 0
    outer loop
      vertex 3.69552 1.53073 5
      vertex 3.82776 1.16114 10
      vertex 3.82776 1.16114 5
    endloop
  endfacet
  facet normal 0.0490684 -0.998795 0
    outer loop
      vertex 0 -4 5
      vertex 0.392068 -3.98074 10
      vertex 0 -4 10
    endloop
  endfacet
  facet normal 0.0490684 -0.998795 0
    outer loop
      vertex 0.392068 -3.98074 10
      vertex 0 -4 5
      vertex 0.392068 -3.98074 5
    endloop
  endfacet
  facet normal -0.998795 -0.0490684 0
    outer loop
      vertex -3.98074 -0.392068 5
      vertex -4 0 10
      vertex -4 0 5
    endloop
  endfacet
  facet normal -0.998795 -0.0490684 0
    outer loop
      vertex -4 0 10
      vertex -3.98074 -0.392068 5
      vertex -3.98074 -0.392068 10
    endloop
  endfacet
  facet normal -0.0490684 0.998795 0
    outer loop
      vertex 0 4 5
      vertex -0.392068 3.98074 10
      vertex 0 4 10
    endloop
  endfacet
  facet normal -0.0490684 0.998795 0
    outer loop
      vertex -0.392068 3.98074 10
      vertex 0 4 5
      vertex -0.392068 3.98074 5
    endloop
  endfacet
  facet normal -0.998795 0.0490684 0
    outer loop
      vertex -4 0 5
      vertex -3.98074 0.392068 10
      vertex -3.98074 0.392068 5
    endloop
  endfacet
  facet normal -0.998795 0.0490684 0
    outer loop
      vertex -3.98074 0.392068 10
      vertex -4 0 5
      vertex -4 0 10
    endloop
  endfacet
  facet normal -0.67156 0.740951 0
    outer loop
      vertex -2.53757 3.09204 5
      vertex -2.82843 2.82843 10
      vertex -2.53757 3.09204 10
    endloop
  endfacet
  facet normal -0.67156 0.740951 0
    outer loop
      vertex -2.82843 2.82843 10
      vertex -2.53757 3.09204 5
      vertex -2.82843 2.82843 5
    endloop
  endfacet
  facet normal -0.427555 -0.903989 0
    outer loop
      vertex -1.88559 -3.52768 5
      vertex -1.53073 -3.69552 10
      vertex -1.88559 -3.52768 10
    endloop
  endfacet
  facet normal -0.427555 -0.903989 -0
    outer loop
      vertex -1.53073 -3.69552 10
      vertex -1.88559 -3.52768 5
      vertex -1.53073 -3.69552 5
    endloop
  endfacet
  facet normal 0.857729 0.514102 0
    outer loop
      vertex 3.52768 1.88559 10
      vertex 3.32588 2.22228 5
      vertex 3.32588 2.22228 10
    endloop
  endfacet
  facet normal 0.857729 0.514102 0
    outer loop
      vertex 3.32588 2.22228 5
      vertex 3.52768 1.88559 10
      vertex 3.52768 1.88559 5
    endloop
  endfacet
  facet normal -0.5957 -0.803207 0
    outer loop
      vertex -2.53757 -3.09204 5
      vertex -2.22228 -3.32588 10
      vertex -2.53757 -3.09204 10
    endloop
  endfacet
  facet normal -0.5957 -0.803207 -0
    outer loop
      vertex -2.22228 -3.32588 10
      vertex -2.53757 -3.09204 5
      vertex -2.22228 -3.32588 5
    endloop
  endfacet
  facet normal -0.24298 0.970031 0
    outer loop
      vertex -0.780361 3.92314 5
      vertex -1.16114 3.82776 10
      vertex -0.780361 3.92314 10
    endloop
  endfacet
  facet normal -0.24298 0.970031 0
    outer loop
      vertex -1.16114 3.82776 10
      vertex -0.780361 3.92314 5
      vertex -1.16114 3.82776 5
    endloop
  endfacet
  facet normal -0.740951 -0.67156 0
    outer loop
      vertex -2.82843 -2.82843 5
      vertex -3.09204 -2.53757 10
      vertex -3.09204 -2.53757 5
    endloop
  endfacet
  facet normal -0.740951 -0.67156 0
    outer loop
      vertex -3.09204 -2.53757 10
      vertex -2.82843 -2.82843 5
      vertex -2.82843 -2.82843 10
    endloop
  endfacet
  facet normal -0.970031 -0.24298 0
    outer loop
      vertex -3.82776 -1.16114 5
      vertex -3.92314 -0.780361 10
      vertex -3.92314 -0.780361 5
    endloop
  endfacet
  facet normal -0.970031 -0.24298 0
    outer loop
      vertex -3.92314 -0.780361 10
      vertex -3.82776 -1.16114 5
      vertex -3.82776 -1.16114 10
    endloop
  endfacet
  facet normal -0.941544 -0.33689 0
    outer loop
      vertex -3.69552 -1.53073 5
      vertex -3.82776 -1.16114 10
      vertex -3.82776 -1.16114 5
    endloop
  endfacet
  facet normal -0.941544 -0.33689 0
    outer loop
      vertex -3.82776 -1.16114 10
      vertex -3.69552 -1.53073 5
      vertex -3.69552 -1.53073 10
    endloop
  endfacet
  facet normal -0.0490684 -0.998795 0
    outer loop
      vertex -0.392068 -3.98074 5
      vertex 0 -4 10
      vertex -0.392068 -3.98074 10
    endloop
  endfacet
  facet normal -0.0490684 -0.998795 -0
    outer loop
      vertex 0 -4 10
      vertex -0.392068 -3.98074 5
      vertex 0 -4 5
    endloop
  endfacet
  facet normal -0.146731 -0.989176 0
    outer loop
      vertex -0.780361 -3.92314 5
      vertex -0.392068 -3.98074 10
      vertex -0.780361 -3.92314 10
    endloop
  endfacet
  facet normal -0.146731 -0.989176 -0
    outer loop
      vertex -0.392068 -3.98074 10
      vertex -0.780361 -3.92314 5
      vertex -0.392068 -3.98074 5
    endloop
  endfacet
  facet normal 0.740951 -0.67156 0
    outer loop
      vertex 2.82843 -2.82843 10
      vertex 3.09204 -2.53757 5
      vertex 3.09204 -2.53757 10
    endloop
  endfacet
  facet normal 0.740951 -0.67156 0
    outer loop
      vertex 3.09204 -2.53757 5
      vertex 2.82843 -2.82843 10
      vertex 2.82843 -2.82843 5
    endloop
  endfacet
  facet normal 0.0490684 0.998795 -0
    outer loop
      vertex 0.392068 3.98074 5
      vertex 0 4 10
      vertex 0.392068 3.98074 10
    endloop
  endfacet
  facet normal 0.0490684 0.998795 0
    outer loop
      vertex 0 4 10
      vertex 0.392068 3.98074 5
      vertex 0 4 5
    endloop
  endfacet
  facet normal 0.970031 -0.24298 0
    outer loop
      vertex 3.82776 -1.16114 10
      vertex 3.92314 -0.780361 5
      vertex 3.92314 -0.780361 10
    endloop
  endfacet
  facet normal 0.970031 -0.24298 0
    outer loop
      vertex 3.92314 -0.780361 5
      vertex 3.82776 -1.16114 10
      vertex 3.82776 -1.16114 5
    endloop
  endfacet
  facet normal -0.903989 0.427555 0
    outer loop
      vertex -3.69552 1.53073 5
      vertex -3.52768 1.88559 10
      vertex -3.52768 1.88559 5
    endloop
  endfacet
  facet normal -0.903989 0.427555 0
    outer loop
      vertex -3.52768 1.88559 10
      vertex -3.69552 1.53073 5
      vertex -3.69552 1.53073 10
    endloop
  endfacet
  facet normal 0 0 1
    outer loop
      vertex 3.98074 0.392068 10
      vertex 3.98074 -0.392068 10
      vertex 4 0 10
    endloop
  endfacet
  facet normal 0 0 1
    outer loop
      vertex 3.92314 0.780361 10
      vertex 3.98074 -0.392068 10
      vertex 3.98074 0.392068 10
    endloop
  endfacet
  facet normal 0 0 1
    outer loop
      vertex 3.92314 0.780361 10
      vertex 3.92314 -0.780361 10
      vertex 3.98074 -0.392068 10
    endloop
  endfacet
  facet normal 0 0 1
    outer loop
      vertex 3.82776 1.16114 10
      vertex 3.92314 -0.780361 10
      vertex 3.92314 0.780361 10
    endloop
  endfacet
  facet normal 0 0 1
    outer loop
      vertex 3.82776 1.16114 10
      vertex 3.82776 -1.16114 10
      vertex 3.92314 -0.780361 10
    endloop
  endfacet
  facet normal 0 0 1
    outer loop
      vertex 3.69552 1.53073 10
      vertex 3.82776 -1.16114 10
      vertex 3.82776 1.16114 10
    endloop
  endfacet
  facet normal 0 0 1
    outer loop
      vertex 3.69552 1.53073 10
      vertex 3.69552 -1.53073 10
      vertex 3.82776 -1.16114 10
    endloop
  endfacet
  facet normal 0 0 1
    outer loop
      vertex 3.52768 1.88559 10
      vertex 3.69552 -1.53073 10
      vertex 3.69552 1.53073 10
    endloop
  endfacet
  facet normal 0 0 1
    outer loop
      vertex 3.52768 1.88559 10
      vertex 3.52768 -1.88559 10
      vertex 3.69552 -1.53073 10
    endloop
  endfacet
  facet normal 0 0 1
    outer loop
      vertex 3.32588 2.22228 10
      vertex 3.52768 -1.88559 10
      vertex 3.52768 1.88559 10
    endloop
  endfacet
  facet normal 0 0 1
    outer loop
      vertex 3.32588 2.22228 10
      vertex 3.32588 -2.22228 10
      vertex 3.52768 -1.88559 10
    endloop
  endfacet
  facet normal 0 0 1
    outer loop
      vertex 3.09204 2.53757 10
      vertex 3.32588 -2.22228 10
      vertex 3.32588 2.22228 10
    endloop
  endfacet
  facet normal 0 0 1
    outer loop
      vertex 3.09204 2.53757 10
      vertex 3.09204 -2.53757 10
      vertex 3.32588 -2.22228 10
    endloop
  endfacet
  facet normal 0 0 1
    outer loop
      vertex 2.82843 2.82843 10
      vertex 3.09204 -2.53757 10
      vertex 3.09204 2.53757 10
    endloop
  endfacet
  facet normal 0 0 1
    outer loop
      vertex 2.82843 2.82843 10
      vertex 2.82843 -2.82843 10
      vertex 3.09204 -2.53757 10
    endloop
  endfacet
  facet normal 0 0 1
    outer loop
      vertex 2.53757 3.09204 10
      vertex 2.82843 -2.82843 10
      vertex 2.82843 2.82843 10
    endloop
  endfacet
  facet normal 0 0 1
    outer loop
      vertex 2.53757 3.09204 10
      vertex 2.53757 -3.09204 10
      vertex 2.82843 -2.82843 10
    endloop
  endfacet
  facet normal 0 0 1
    outer loop
      vertex 2.22228 3.32588 10
      vertex 2.53757 -3.09204 10
      vertex 2.53757 3.09204 10
    endloop
  endfacet
  facet normal 0 0 1
    outer loop
      vertex 2.22228 3.32588 10
      vertex 2.22228 -3.32588 10
      vertex 2.53757 -3.09204 10
    endloop
  endfacet
  facet normal 0 0 1
    outer loop
      vertex 1.88559 3.52768 10
      vertex 2.22228 -3.32588 10
      vertex 2.22228 3.32588 10
    endloop
  endfacet
  facet normal 0 0 1
    outer loop
      vertex 1.88559 3.52768 10
      vertex 1.88559 -3.52768 10
      vertex 2.22228 -3.32588 10
    endloop
  endfacet
  facet normal 0 0 1
    outer loop
      vertex 1.53073 3.69552 10
      vertex 1.88559 -3.52768 10
      vertex 1.88559 3.52768 10
    endloop
  endfacet
  facet normal 0 0 1
    outer loop
      vertex 1.53073 3.69552 10
      vertex 1.53073 -3.69552 10
      vertex 1.88559 -3.52768 10
    endloop
  endfacet
  facet normal 0 0 1
    outer loop
      vertex 1.16114 3.82776 10
      vertex 1.53073 -3.69552 10
      vertex 1.53073 3.69552 10
    endloop
  endfacet
  facet normal 0 0 1
    outer loop
      vertex 1.16114 3.82776 10
      vertex 1.16114 -3.82776 10
      vertex 1.53073 -3.69552 10
    endloop
  endfacet
  facet normal 0 0 1
    outer loop
      vertex 0.780361 3.92314 10
      vertex 1.16114 -3.82776 10
      vertex 1.16114 3.82776 10
    endloop
  endfacet
  facet normal 0 0 1
    outer loop
      vertex 0.780361 3.92314 10
      vertex 0.780361 -3.92314 10
      vertex 1.16114 -3.82776 10
    endloop
  endfacet
  facet normal 0 0 1
    outer loop
      vertex 0.392068 3.98074 10
      vertex 0.780361 -3.92314 10
      vertex 0.780361 3.92314 10
    endloop
  endfacet
  facet normal 0 0 1
    outer loop
      vertex 0.392068 3.98074 10
      vertex 0.392068 -3.98074 10
      vertex 0.780361 -3.92314 10
    endloop
  endfacet
  facet normal 0 0 1
    outer loop
      vertex 0 4 10
      vertex 0.392068 -3.98074 10
      vertex 0.392068 3.98074 10
    endloop
  endfacet
  facet normal 0 0 1
    outer loop
      vertex 0 4 10
      vertex 0 -4 10
      vertex 0.392068 -3.98074 10
    endloop
  endfacet
  facet normal -0 0 1
    outer loop
      vertex -0.392068 3.98074 10
      vertex 0 -4 10
      vertex 0 4 10
    endloop
  endfacet
  facet normal 0 0 1
    outer loop
      vertex -0.392068 3.98074 10
      vertex -0.392068 -3.98074 10
      vertex 0 -4 10
    endloop
  endfacet
  facet normal -0 0 1
    outer loop
      vertex -0.780361 3.92314 10
      vertex -0.392068 -3.98074 10
      vertex -0.392068 3.98074 10
    endloop
  endfacet
  facet normal 0 0 1
    outer loop
      vertex -0.780361 3.92314 10
      vertex -0.780361 -3.92314 10
      vertex -0.392068 -3.98074 10
    endloop
  endfacet
  facet normal -0 0 1
    outer loop
      vertex -1.16114 3.82776 10
      vertex -0.780361 -3.92314 10
      vertex -0.780361 3.92314 10
    endloop
  endfacet
  facet normal 0 0 1
    outer loop
      vertex -1.16114 3.82776 10
      vertex -1.16114 -3.82776 10
      vertex -0.780361 -3.92314 10
    endloop
  endfacet
  facet normal -0 0 1
    outer loop
      vertex -1.53073 3.69552 10
      vertex -1.16114 -3.82776 10
      vertex -1.16114 3.82776 10
    endloop
  endfacet
  facet normal 0 0 1
    outer loop
      vertex -1.53073 3.69552 10
      vertex -1.53073 -3.69552 10
      vertex -1.16114 -3.82776 10
    endloop
  endfacet
  facet normal -0 0 1
    outer loop
      vertex -1.88559 3.52768 10
      vertex -1.53073 -3.69552 10
      vertex -1.53073 3.69552 10
    endloop
  endfacet
  facet normal 0 0 1
    outer loop
      vertex -1.88559 3.52768 10
      vertex -1.88559 -3.52768 10
      vertex -1.53073 -3.69552 10
    endloop
  endfacet
  facet normal -0 0 1
    outer loop
      vertex -2.22228 3.32588 10
      vertex -1.88559 -3.52768 10
      vertex -1.88559 3.52768 10
    endloop
  endfacet
  facet normal 0 0 1
    outer loop
      vertex -2.22228 3.32588 10
      vertex -2.22228 -3.32588 10
      vertex -1.88559 -3.52768 10
    endloop
  endfacet
  facet normal -0 0 1
    outer loop
      vertex -2.53757 3.09204 10
      vertex -2.22228 -3.32588 10
      vertex -2.22228 3.32588 10
    endloop
  endfacet
  facet normal 0 0 1
    outer loop
      vertex -2.53757 3.09204 10
      vertex -2.53757 -3.09204 10
      vertex -2.22228 -3.32588 10
    endloop
  endfacet
  facet normal -0 0 1
    outer loop
      vertex -2.82843 2.82843 10
      vertex -2.53757 -3.09204 10
      vertex -2.53757 3.09204 10
    endloop
  endfacet
  facet normal 0 0 1
    outer loop
      vertex -2.82843 2.82843 10
      vertex -2.82843 -2.82843 10
      vertex -2.53757 -3.09204 10
    endloop
  endfacet
  facet normal -0 0 1
    outer loop
      vertex -3.09204 2.53757 10
      vertex -2.82843 -2.82843 10
      vertex -2.82843 2.82843 10
    endloop
  endfacet
  facet normal 0 0 1
    outer loop
      vertex -3.09204 2.53757 10
      vertex -3.09204 -2.53757 10
      vertex -2.82843 -2.82843 10
    endloop
  endfacet
  facet normal -0 0 1
    outer loop
      vertex -3.32588 2.22228 10
      vertex -3.09204 -2.53757 10
      vertex -3.09204 2.53757 10
    endloop
  endfacet
  facet normal 0 0 1
    outer loop
      vertex -3.32588 2.22228 10
      vertex -3.32588 -2.22228 10
      vertex -3.09204 -2.53757 10
    endloop
  endfacet
  facet normal -0 0 1
    outer loop
      vertex -3.52768 1.88559 10
      vertex -3.32588 -2.22228 10
      vertex -3.32588 2.22228 10
    endloop
  endfacet
  facet normal 0 0 1
    outer loop
      vertex -3.52768 1.88559 10
      vertex -3.52768 -1.88559 10
      vertex -3.32588 -2.22228 10
    endloop
  endfacet
  facet normal -0 0 1
    outer loop
      vertex -3.69552 1.53073 10
      vertex -3.52768 -1.88559 10
      vertex -3.52768 1.88559 10
    endloop
  endfacet
  facet normal 0 0 1
    outer loop
      vertex -3.69552 1.53073 10
      vertex -3.69552 -1.53073 10
      vertex -3.52768 -1.88559 10
    endloop
  endfacet
  facet normal -0 0 1
    outer loop
      vertex -3.82776 1.16114 10
      vertex -3.69552 -1.53073 10
      vertex -3.69552 1.53073 10
    endloop
  endfacet
  facet normal 0 0 1
    outer loop
      vertex -3.82776 1.16114 10
      vertex -3.82776 -1.16114 10
      vertex -3.69552 -1.53073 10
    endloop
  endfacet
  facet normal -0 0 1
    outer loop
      vertex -3.92314 0.780361 10
      vertex -3.82776 -1.16114 10
      vertex -3.82776 1.16114 10
    endloop
  endfacet
  facet normal 0 0 1
    outer loop
      vertex -3.92314 0.780361 10
      vertex -3.92314 -0.780361 10
      vertex -3.82776 -1.16114 10
    endloop
  endfacet
  facet normal -0 0 1
    outer loop
      vertex -3.98074 0.392068 10
      vertex -3.92314 -0.780361 10
      vertex -3.92314 0.780361 10
    endloop
  endfacet
  facet normal 0 0 1
    outer loop
      vertex -3.98074 0.392068 10
      vertex -3.98074 -0.392068 10
      vertex -3.92314 -0.780361 10
    endloop
  endfacet
  facet normal 0 -0 1
    outer loop
      vertex -3.98074 -0.392068 10
      vertex -3.98074 0.392068 10
      vertex -4 0 10
    endloop
  endfacet
  facet normal -0.857729 -0.514102 0
    outer loop
      vertex -3.32588 -2.22228 5
      vertex -3.52768 -1.88559 10
      vertex -3.52768 -1.88559 5
    endloop
  endfacet
  facet normal -0.857729 -0.514102 0
    outer loop
      vertex -3.52768 -1.88559 10
      vertex -3.32588 -2.22228 5
      vertex -3.32588 -2.22228 10
    endloop
  endfacet
  facet normal -0.67156 -0.740951 0
    outer loop
      vertex -2.82843 -2.82843 5
      vertex -2.53757 -3.09204 10
      vertex -2.82843 -2.82843 10
    endloop
  endfacet
  facet normal -0.67156 -0.740951 -0
    outer loop
      vertex -2.53757 -3.09204 10
      vertex -2.82843 -2.82843 5
      vertex -2.53757 -3.09204 5
    endloop
  endfacet
  facet normal -0.970031 0.24298 0
    outer loop
      vertex -3.92314 0.780361 5
      vertex -3.82776 1.16114 10
      vertex -3.82776 1.16114 5
    endloop
  endfacet
  facet normal -0.970031 0.24298 0
    outer loop
      vertex -3.82776 1.16114 10
      vertex -3.92314 0.780361 5
      vertex -3.92314 0.780361 10
    endloop
  endfacet
  facet normal -0.514102 -0.857729 0
    outer loop
      vertex -2.22228 -3.32588 5
      vertex -1.88559 -3.52768 10
      vertex -2.22228 -3.32588 10
    endloop
  endfacet
  facet normal -0.514102 -0.857729 -0
    outer loop
      vertex -1.88559 -3.52768 10
      vertex -2.22228 -3.32588 5
      vertex -1.88559 -3.52768 5
    endloop
  endfacet
  facet normal 0.427555 -0.903989 0
    outer loop
      vertex 1.53073 -3.69552 5
      vertex 1.88559 -3.52768 10
      vertex 1.53073 -3.69552 10
    endloop
  endfacet
  facet normal 0.427555 -0.903989 0
    outer loop
      vertex 1.88559 -3.52768 10
      vertex 1.53073 -3.69552 5
      vertex 1.88559 -3.52768 5
    endloop
  endfacet
  facet normal -0.803207 0.5957 0
    outer loop
      vertex -3.32588 2.22228 5
      vertex -3.09204 2.53757 10
      vertex -3.09204 2.53757 5
    endloop
  endfacet
  facet normal -0.803207 0.5957 0
    outer loop
      vertex -3.09204 2.53757 10
      vertex -3.32588 2.22228 5
      vertex -3.32588 2.22228 10
    endloop
  endfacet
  facet normal 0.740951 0.67156 0
    outer loop
      vertex 3.09204 2.53757 10
      vertex 2.82843 2.82843 5
      vertex 2.82843 2.82843 10
    endloop
  endfacet
  facet normal 0.740951 0.67156 0
    outer loop
      vertex 2.82843 2.82843 5
      vertex 3.09204 2.53757 10
      vertex 3.09204 2.53757 5
    endloop
  endfacet
  facet normal 0.514102 -0.857729 0
    outer loop
      vertex 1.88559 -3.52768 5
      vertex 2.22228 -3.32588 10
      vertex 1.88559 -3.52768 10
    endloop
  endfacet
  facet normal 0.514102 -0.857729 0
    outer loop
      vertex 2.22228 -3.32588 10
      vertex 1.88559 -3.52768 5
      vertex 2.22228 -3.32588 5
    endloop
  endfacet
  facet normal -0.740951 0.67156 0
    outer loop
      vertex -3.09204 2.53757 5
      vertex -2.82843 2.82843 10
      vertex -2.82843 2.82843 5
    endloop
  endfacet
  facet normal -0.740951 0.67156 0
    outer loop
      vertex -2.82843 2.82843 10
      vertex -3.09204 2.53757 5
      vertex -3.09204 2.53757 10
    endloop
  endfacet
  facet normal -0.427555 0.903989 0
    outer loop
      vertex -1.53073 3.69552 5
      vertex -1.88559 3.52768 10
      vertex -1.53073 3.69552 10
    endloop
  endfacet
  facet normal -0.427555 0.903989 0
    outer loop
      vertex -1.88559 3.52768 10
      vertex -1.53073 3.69552 5
      vertex -1.88559 3.52768 5
    endloop
  endfacet
endsolid OpenSCAD_Model
