solid OpenSCAD_Model
  facet normal 1 0 0
    outer loop
      vertex 5 0.99 5
      vertex 5 0 5
      vertex 5 0.99 1
    endloop
  endfacet
  facet normal 1 0 0
    outer loop
      vertex 5 14 8
      vertex 5 11.49 8
      vertex 5 14 5
    endloop
  endfacet
  facet normal 1 -0 0
    outer loop
      vertex 5 14 5
      vertex 5 15 0
      vertex 5 15 5
    endloop
  endfacet
  facet normal 1 0 0
    outer loop
      vertex 5 11.49 1
      vertex 5 14 5
      vertex 5 11.49 8
    endloop
  endfacet
  facet normal 1 0 0
    outer loop
      vertex 5 14 5
      vertex 5 11.49 1
      vertex 5 15 0
    endloop
  endfacet
  facet normal 1 0 0
    outer loop
      vertex 5 0 0
      vertex 5 11.49 1
      vertex 5 0.99 1
    endloop
  endfacet
  facet normal 1 0 0
    outer loop
      vertex 5 11.49 1
      vertex 5 0 0
      vertex 5 15 0
    endloop
  endfacet
  facet normal 1 0 0
    outer loop
      vertex 5 0 0
      vertex 5 0.99 1
      vertex 5 0 5
    endloop
  endfacet
  facet normal -0 0 1
    outer loop
      vertex 0 14 8
      vertex 5 11.49 8
      vertex 5 14 8
    endloop
  endfacet
  facet normal 0 0 1
    outer loop
      vertex 5 11.49 8
      vertex 0 14 8
      vertex 0 11.49 8
    endloop
  endfacet
  facet normal 0 0 -1
    outer loop
      vertex 0 0 0
      vertex 5 15 0
      vertex 5 0 0
    endloop
  endfacet
  facet normal -0 0 -1
    outer loop
      vertex 5 15 0
      vertex 0 0 0
      vertex 0 15 0
    endloop
  endfacet
  facet normal -1 0 0
    outer loop
      vertex 0 15 0
      vertex 0 14 5
      vertex 0 15 5
    endloop
  endfacet
  facet normal -1 0 0
    outer loop
      vertex 0 11.49 8
      vertex 0 14 5
      vertex 0 11.49 1
    endloop
  endfacet
  facet normal -1 0 0
    outer loop
      vertex 0 15 0
      vertex 0 11.49 1
      vertex 0 14 5
    endloop
  endfacet
  facet normal -1 0 0
    outer loop
      vertex 0 0 0
      vertex 0 11.49 1
      vertex 0 15 0
    endloop
  endfacet
  facet normal -1 -0 0
    outer loop
      vertex 0 11.49 1
      vertex 0 0 0
      vertex 0 0.99 1
    endloop
  endfacet
  facet normal -1 0 0
    outer loop
      vertex 0 0 5
      vertex 0 0.99 1
      vertex 0 0 0
    endloop
  endfacet
  facet normal -1 0 0
    outer loop
      vertex 0 0.99 1
      vertex 0 0 5
      vertex 0 0.99 5
    endloop
  endfacet
  facet normal -1 0 0
    outer loop
      vertex 0 14 5
      vertex 0 11.49 8
      vertex 0 14 8
    endloop
  endfacet
  facet normal 0 1 -0
    outer loop
      vertex 5 14 5
      vertex 0 14 8
      vertex 5 14 8
    endloop
  endfacet
  facet normal 0 1 0
    outer loop
      vertex 0 14 8
      vertex 5 14 5
      vertex 0 14 5
    endloop
  endfacet
  facet normal -0 0 1
    outer loop
      vertex 0 15 5
      vertex 5 14 5
      vertex 5 15 5
    endloop
  endfacet
  facet normal 0 0 1
    outer loop
      vertex 5 14 5
      vertex 0 15 5
      vertex 0 14 5
    endloop
  endfacet
  facet normal -0 0 1
    outer loop
      vertex 0 0.99 5
      vertex 5 0 5
      vertex 5 0.99 5
    endloop
  endfacet
  facet normal 0 0 1
    outer loop
      vertex 5 0 5
      vertex 0 0.99 5
      vertex 0 0 5
    endloop
  endfacet
  facet normal 0 1 -0
    outer loop
      vertex 5 15 0
      vertex 0 15 5
      vertex 5 15 5
    endloop
  endfacet
  facet normal 0 1 0
    outer loop
      vertex 0 15 5
      vertex 5 15 0
      vertex 0 15 0
    endloop
  endfacet
  facet normal 0 -1 0
    outer loop
      vertex 0 0 0
      vertex 5 0 5
      vertex 0 0 5
    endloop
  endfacet
  facet normal 0 -1 -0
    outer loop
      vertex 5 0 5
      vertex 0 0 0
      vertex 5 0 0
    endloop
  endfacet
  facet normal -0 0 1
    outer loop
      vertex 0 11.49 1
      vertex 5 0.99 1
      vertex 5 11.49 1
    endloop
  endfacet
  facet normal 0 0 1
    outer loop
      vertex 5 0.99 1
      vertex 0 11.49 1
      vertex 0 0.99 1
    endloop
  endfacet
  facet normal 0 -1 0
    outer loop
      vertex 0 11.49 1
      vertex 5 11.49 8
      vertex 0 11.49 8
    endloop
  endfacet
  facet normal 0 -1 -0
    outer loop
      vertex 5 11.49 8
      vertex 0 11.49 1
      vertex 5 11.49 1
    endloop
  endfacet
  facet normal 0 1 -0
    outer loop
      vertex 5 0.99 1
      vertex 0 0.99 5
      vertex 5 0.99 5
    endloop
  endfacet
  facet normal 0 1 0
    outer loop
      vertex 0 0.99 5
      vertex 5 0.99 1
      vertex 0 0.99 1
    endloop
  endfacet
endsolid OpenSCAD_Model
