solid OpenSCAD_Model
  facet normal 1 -0 0
    outer loop
      vertex 20 0 70
      vertex 20 20 0
      vertex 20 20 70
    endloop
  endfacet
  facet normal 1 0 0
    outer loop
      vertex 20 20 0
      vertex 20 0 70
      vertex 20 0 0
    endloop
  endfacet
  facet normal 0 0 1
    outer loop
      vertex 20 20 70
      vertex 18.5 18.5 70
      vertex 20 0 70
    endloop
  endfacet
  facet normal 0 0 1
    outer loop
      vertex 20 20 70
      vertex 1.5 18.5 70
      vertex 18.5 18.5 70
    endloop
  endfacet
  facet normal 0 0 1
    outer loop
      vertex 1.5 18.5 70
      vertex 0 20 70
      vertex 1.5 1.5 70
    endloop
  endfacet
  facet normal -0 0 1
    outer loop
      vertex 0 20 70
      vertex 1.5 18.5 70
      vertex 20 20 70
    endloop
  endfacet
  facet normal -0 0 1
    outer loop
      vertex 18.5 1.5 70
      vertex 20 0 70
      vertex 18.5 18.5 70
    endloop
  endfacet
  facet normal -0 0 1
    outer loop
      vertex 1.5 1.5 70
      vertex 20 0 70
      vertex 18.5 1.5 70
    endloop
  endfacet
  facet normal 0 0 1
    outer loop
      vertex 1.5 1.5 70
      vertex 0 0 70
      vertex 20 0 70
    endloop
  endfacet
  facet normal 0 0 1
    outer loop
      vertex 0 0 70
      vertex 1.5 1.5 70
      vertex 0 20 70
    endloop
  endfacet
  facet normal 0 0 -1
    outer loop
      vertex 20 0 0
      vertex 18.5 1.5 0
      vertex 20 20 0
    endloop
  endfacet
  facet normal 0 0 -1
    outer loop
      vertex 20 0 0
      vertex 1.5 1.5 0
      vertex 18.5 1.5 0
    endloop
  endfacet
  facet normal -0 0 -1
    outer loop
      vertex 1.5 1.5 0
      vertex 0 0 0
      vertex 1.5 18.5 0
    endloop
  endfacet
  facet normal 0 0 -1
    outer loop
      vertex 0 0 0
      vertex 1.5 1.5 0
      vertex 20 0 0
    endloop
  endfacet
  facet normal 0 0 -1
    outer loop
      vertex 18.5 18.5 0
      vertex 20 20 0
      vertex 18.5 1.5 0
    endloop
  endfacet
  facet normal 0 0 -1
    outer loop
      vertex 1.5 18.5 0
      vertex 20 20 0
      vertex 18.5 18.5 0
    endloop
  endfacet
  facet normal 0 0 -1
    outer loop
      vertex 1.5 18.5 0
      vertex 0 20 0
      vertex 20 20 0
    endloop
  endfacet
  facet normal 0 0 -1
    outer loop
      vertex 0 20 0
      vertex 1.5 18.5 0
      vertex 0 0 0
    endloop
  endfacet
  facet normal -1 0 0
    outer loop
      vertex 0 0 0
      vertex 0 20 70
      vertex 0 20 0
    endloop
  endfacet
  facet normal -1 -0 0
    outer loop
      vertex 0 20 70
      vertex 0 0 0
      vertex 0 0 70
    endloop
  endfacet
  facet normal 0 1 -0
    outer loop
      vertex 20 20 0
      vertex 0 20 70
      vertex 20 20 70
    endloop
  endfacet
  facet normal 0 1 0
    outer loop
      vertex 0 20 70
      vertex 20 20 0
      vertex 0 20 0
    endloop
  endfacet
  facet normal 0 -1 0
    outer loop
      vertex 0 0 0
      vertex 20 0 70
      vertex 0 0 70
    endloop
  endfacet
  facet normal 0 -1 -0
    outer loop
      vertex 20 0 70
      vertex 0 0 0
      vertex 20 0 0
    endloop
  endfacet
  facet normal -1 0 0
    outer loop
      vertex 18.5 1.5 0
      vertex 18.5 18.5 70
      vertex 18.5 18.5 0
    endloop
  endfacet
  facet normal -1 -0 0
    outer loop
      vertex 18.5 18.5 70
      vertex 18.5 1.5 0
      vertex 18.5 1.5 70
    endloop
  endfacet
  facet normal 1 -0 0
    outer loop
      vertex 1.5 1.5 70
      vertex 1.5 18.5 0
      vertex 1.5 18.5 70
    endloop
  endfacet
  facet normal 1 0 0
    outer loop
      vertex 1.5 18.5 0
      vertex 1.5 1.5 70
      vertex 1.5 1.5 0
    endloop
  endfacet
  facet normal 0 -1 0
    outer loop
      vertex 1.5 18.5 0
      vertex 18.5 18.5 70
      vertex 1.5 18.5 70
    endloop
  endfacet
  facet normal 0 -1 -0
    outer loop
      vertex 18.5 18.5 70
      vertex 1.5 18.5 0
      vertex 18.5 18.5 0
    endloop
  endfacet
  facet normal 0 1 -0
    outer loop
      vertex 18.5 1.5 0
      vertex 1.5 1.5 70
      vertex 18.5 1.5 70
    endloop
  endfacet
  facet normal 0 1 0
    outer loop
      vertex 1.5 1.5 70
      vertex 18.5 1.5 0
      vertex 1.5 1.5 0
    endloop
  endfacet
endsolid OpenSCAD_Model
