solid OpenSCAD_Model
  facet normal 1 -0 0
    outer loop
      vertex 11 -11 10
      vertex 11 11 -10
      vertex 11 11 10
    endloop
  endfacet
  facet normal 1 0 0
    outer loop
      vertex 11 11 -10
      vertex 11 -11 10
      vertex 11 -11 -10
    endloop
  endfacet
  facet normal 0 0 1
    outer loop
      vertex 11 11 10
      vertex 10.25 10.25 10
      vertex 11 -11 10
    endloop
  endfacet
  facet normal 0 0 1
    outer loop
      vertex 11 11 10
      vertex -10.25 10.25 10
      vertex 10.25 10.25 10
    endloop
  endfacet
  facet normal 0 0 1
    outer loop
      vertex -10.25 10.25 10
      vertex -11 11 10
      vertex -10.25 -10.25 10
    endloop
  endfacet
  facet normal -0 0 1
    outer loop
      vertex -11 11 10
      vertex -10.25 10.25 10
      vertex 11 11 10
    endloop
  endfacet
  facet normal -0 0 1
    outer loop
      vertex 10.25 -10.25 10
      vertex 11 -11 10
      vertex 10.25 10.25 10
    endloop
  endfacet
  facet normal -0 0 1
    outer loop
      vertex -10.25 -10.25 10
      vertex 11 -11 10
      vertex 10.25 -10.25 10
    endloop
  endfacet
  facet normal 0 0 1
    outer loop
      vertex -10.25 -10.25 10
      vertex -11 -11 10
      vertex 11 -11 10
    endloop
  endfacet
  facet normal 0 0 1
    outer loop
      vertex -11 -11 10
      vertex -10.25 -10.25 10
      vertex -11 11 10
    endloop
  endfacet
  facet normal 0 0 -1
    outer loop
      vertex 11 -11 -10
      vertex 10.25 -10.25 -10
      vertex 11 11 -10
    endloop
  endfacet
  facet normal 0 0 -1
    outer loop
      vertex 11 -11 -10
      vertex -10.25 -10.25 -10
      vertex 10.25 -10.25 -10
    endloop
  endfacet
  facet normal -0 0 -1
    outer loop
      vertex -10.25 -10.25 -10
      vertex -11 -11 -10
      vertex -10.25 10.25 -10
    endloop
  endfacet
  facet normal 0 0 -1
    outer loop
      vertex -11 -11 -10
      vertex -10.25 -10.25 -10
      vertex 11 -11 -10
    endloop
  endfacet
  facet normal 0 0 -1
    outer loop
      vertex 10.25 10.25 -10
      vertex 11 11 -10
      vertex 10.25 -10.25 -10
    endloop
  endfacet
  facet normal 0 0 -1
    outer loop
      vertex -10.25 10.25 -10
      vertex 11 11 -10
      vertex 10.25 10.25 -10
    endloop
  endfacet
  facet normal 0 0 -1
    outer loop
      vertex -10.25 10.25 -10
      vertex -11 11 -10
      vertex 11 11 -10
    endloop
  endfacet
  facet normal 0 0 -1
    outer loop
      vertex -11 11 -10
      vertex -10.25 10.25 -10
      vertex -11 -11 -10
    endloop
  endfacet
  facet normal -1 0 0
    outer loop
      vertex -11 -11 -10
      vertex -11 11 10
      vertex -11 11 -10
    endloop
  endfacet
  facet normal -1 -0 0
    outer loop
      vertex -11 11 10
      vertex -11 -11 -10
      vertex -11 -11 10
    endloop
  endfacet
  facet normal 0 1 -0
    outer loop
      vertex 11 11 -10
      vertex -11 11 10
      vertex 11 11 10
    endloop
  endfacet
  facet normal 0 1 0
    outer loop
      vertex -11 11 10
      vertex 11 11 -10
      vertex -11 11 -10
    endloop
  endfacet
  facet normal 0 -1 0
    outer loop
      vertex -11 -11 -10
      vertex 11 -11 10
      vertex -11 -11 10
    endloop
  endfacet
  facet normal 0 -1 -0
    outer loop
      vertex 11 -11 10
      vertex -11 -11 -10
      vertex 11 -11 -10
    endloop
  endfacet
  facet normal -1 0 0
    outer loop
      vertex 10.25 -10.25 -10
      vertex 10.25 10.25 10
      vertex 10.25 10.25 -10
    endloop
  endfacet
  facet normal -1 -0 0
    outer loop
      vertex 10.25 10.25 10
      vertex 10.25 -10.25 -10
      vertex 10.25 -10.25 10
    endloop
  endfacet
  facet normal 1 -0 0
    outer loop
      vertex -10.25 -10.25 10
      vertex -10.25 10.25 -10
      vertex -10.25 10.25 10
    endloop
  endfacet
  facet normal 1 0 0
    outer loop
      vertex -10.25 10.25 -10
      vertex -10.25 -10.25 10
      vertex -10.25 -10.25 -10
    endloop
  endfacet
  facet normal 0 -1 0
    outer loop
      vertex -10.25 10.25 -10
      vertex 10.25 10.25 10
      vertex -10.25 10.25 10
    endloop
  endfacet
  facet normal 0 -1 -0
    outer loop
      vertex 10.25 10.25 10
      vertex -10.25 10.25 -10
      vertex 10.25 10.25 -10
    endloop
  endfacet
  facet normal 0 1 -0
    outer loop
      vertex 10.25 -10.25 -10
      vertex -10.25 -10.25 10
      vertex 10.25 -10.25 10
    endloop
  endfacet
  facet normal 0 1 0
    outer loop
      vertex -10.25 -10.25 10
      vertex 10.25 -10.25 -10
      vertex -10.25 -10.25 -10
    endloop
  endfacet
endsolid OpenSCAD_Model
